<svg width="60" height="69" viewBox="0 0 60 69" fill="none" xmlns="http://www.w3.org/2000/svg">
<path d="M59.9123 39.8301C59.9123 39.8291 59.9123 39.8277 59.9123 39.8265L59.9055 39.8096L59.9034 39.8045L55.3129 28.3279C55.2275 28.1145 55.08 27.9315 54.8896 27.8026C54.6991 27.6738 54.4744 27.605 54.2445 27.6051H46.0255C47.6421 24.8084 48.4939 21.6354 48.4952 18.4051C48.4965 15.1748 47.6472 12.0011 46.0328 9.20312C44.4184 6.40516 42.0958 4.08159 39.2985 2.46606C36.5012 0.850529 33.3278 0 30.0975 0C26.8672 0 23.6938 0.850529 20.8965 2.46606C18.0992 4.08159 15.7765 6.40516 14.1621 9.20312C12.5477 12.0011 11.6985 15.1748 11.6998 18.4051C11.701 21.6354 12.5529 24.8084 14.1695 27.6051H5.95046C5.72065 27.6051 5.4961 27.674 5.3058 27.8028C5.1155 27.9317 4.96817 28.1146 4.88282 28.3279L0.292298 39.8045L0.290142 39.8096L0.283387 39.8265C0.283387 39.8277 0.283387 39.8291 0.282668 39.8301C0.228937 39.9648 0.201281 40.1085 0.201172 40.2536C0.203226 42.0827 0.930758 43.8363 2.22415 45.1297C3.51755 46.4231 5.27118 47.1506 7.10032 47.1527V67.8501C7.10032 68.1551 7.22147 68.4476 7.43711 68.6632C7.65275 68.8789 7.94522 69 8.25018 69H51.9448C52.2497 69 52.5422 68.8789 52.7579 68.6632C52.9735 68.4476 53.0946 68.1551 53.0946 67.8501V47.1527C54.9238 47.1506 56.6774 46.4231 57.9708 45.1297C59.2642 43.8363 59.9917 42.0827 59.9938 40.2536C59.9937 40.1085 59.966 39.9648 59.9123 39.8301ZM57.1456 39.1037H48.2008L45.4412 29.9048H53.466L57.1456 39.1037ZM45.7999 39.1037H36.8874L36.5406 35.6386C39.139 34.6618 41.4836 33.1115 43.3998 31.103L45.7999 39.1037ZM46.05 41.4034C45.795 42.3908 45.2191 43.2654 44.4129 43.8898C43.6067 44.5143 42.6158 44.8531 41.5961 44.8531C40.5763 44.8531 39.5854 44.5143 38.7792 43.8898C37.973 43.2654 37.3971 42.3908 37.1421 41.4034H46.05ZM30.0975 36.804C31.5114 36.8046 32.9208 36.6421 34.2975 36.3197L34.5762 39.1037H25.6188L25.8975 36.3197C27.2742 36.6421 28.6835 36.8046 30.0975 36.804ZM34.5515 41.4034C34.2964 42.3908 33.7205 43.2654 32.9143 43.8898C32.1081 44.5143 31.1172 44.8531 30.0975 44.8531C29.0777 44.8531 28.0869 44.5143 27.2806 43.8898C26.4744 43.2654 25.8985 42.3908 25.6435 41.4034H34.5515ZM30.0975 2.30824C33.2814 2.30824 36.3938 3.25237 39.0411 5.02124C41.6884 6.79011 43.7517 9.30428 44.9701 12.2458C46.1885 15.1873 46.5073 18.4241 45.8862 21.5468C45.265 24.6695 43.7318 27.5379 41.4805 29.7893C39.2291 32.0406 36.3608 33.5738 33.238 34.1949C30.1153 34.8161 26.8786 34.4973 23.937 33.2789C20.9955 32.0605 18.4813 29.9971 16.7125 27.3498C14.9436 24.7025 13.9995 21.5901 13.9995 18.4062C14.0043 14.1383 15.7019 10.0465 18.7198 7.02857C21.7377 4.01066 25.8295 2.31307 30.0975 2.30824ZM23.6544 35.6386L23.3076 39.1037H14.395L16.7953 31.103C18.7115 33.1115 21.056 34.6618 23.6544 35.6386ZM23.0529 41.4034C22.7978 42.3908 22.222 43.2654 21.4157 43.8898C20.6095 44.5143 19.6187 44.8531 18.5989 44.8531C17.5791 44.8531 16.5883 44.5143 15.7821 43.8898C14.9758 43.2654 14.4 42.3908 14.1449 41.4034H23.0529ZM6.72892 29.9048H14.7538L11.9941 39.1037H3.04937L6.72892 29.9048ZM2.64692 41.4034H11.5549C11.2998 42.3908 10.724 43.2654 9.91774 43.8898C9.11152 44.5143 8.12066 44.8531 7.10089 44.8531C6.08113 44.8531 5.09027 44.5143 4.28405 43.8898C3.47783 43.2654 2.90195 42.3908 2.64692 41.4034ZM15.1493 66.7003V51.7521H24.3482V66.7003H15.1493ZM50.7949 58.6513H26.6479V51.7521H50.7949V58.6513ZM26.6479 66.7003V60.951H50.7949V66.7003H26.6479ZM50.7949 49.4524H13.9995C13.6945 49.4524 13.402 49.5736 13.1864 49.7892C12.9708 50.0048 12.8496 50.2973 12.8496 50.6023V66.7003H9.40004V46.7571C10.8109 46.2548 12.0211 45.3091 12.8496 44.0616C13.4778 45.0118 14.3318 45.7915 15.3351 46.3309C16.3384 46.8704 17.4598 47.1527 18.5989 47.1527C19.738 47.1527 20.8594 46.8704 21.8627 46.3309C22.866 45.7915 23.72 45.0118 24.3482 44.0616C24.9764 45.0118 25.8304 45.7915 26.8337 46.3309C27.837 46.8704 28.9584 47.1527 30.0975 47.1527C31.2366 47.1527 32.358 46.8704 33.3613 46.3309C34.3646 45.7915 35.2185 45.0118 35.8468 44.0616C36.475 45.0118 37.329 45.7915 38.3323 46.3309C39.3356 46.8704 40.4569 47.1527 41.5961 47.1527C42.7352 47.1527 43.8565 46.8704 44.8598 46.3309C45.8631 45.7915 46.7171 45.0118 47.3453 44.0616C48.1739 45.3091 49.3841 46.2548 50.7949 46.7571V49.4524ZM53.0946 44.853C52.0752 44.8517 51.085 44.5123 50.2791 43.8881C49.4731 43.2639 48.8969 42.3901 48.6407 41.4034H57.5486C57.2924 42.3901 56.7161 43.2639 55.9102 43.8881C55.1042 44.5123 54.114 44.8517 53.0946 44.853Z" fill="#ec4125"/>
</svg>
