<svg width="58" height="64" viewBox="0 0 58 64" fill="none" xmlns="http://www.w3.org/2000/svg">
<path d="M36.0882 47.7649C41.4824 38.818 48.3004 26.24 48.3004 19.7747C48.3004 8.86857 39.4318 0 28.5257 0C17.6196 0 8.75102 8.86857 8.75102 19.7747C8.75102 26.24 15.569 38.818 20.9633 47.7649C14.5633 48.2482 0 49.9853 0 55.7453C0 61.4139 14.7853 64 28.5388 64C42.2792 64 57.0776 61.4139 57.0776 55.7453C57.0645 49.9853 42.4882 48.2482 36.0882 47.7649ZM11.4808 19.7747C11.4808 10.3706 19.1347 2.71673 28.5257 2.71673C37.9298 2.71673 45.5837 10.3706 45.5837 19.7747C45.5837 27.9902 32.4963 48.6008 28.5257 54.6612C24.5551 48.6008 11.4808 27.9902 11.4808 19.7747ZM28.5257 61.2702C11.8204 61.2702 2.71674 57.6131 2.71674 55.7322C2.71674 54.2824 8.7249 51.1608 22.5698 50.3641C25.169 54.5567 27.1412 57.5216 27.4024 57.8743C27.7551 58.3445 28.7869 58.9061 29.662 57.8743C29.9363 57.5478 31.8955 54.5567 34.4947 50.3641C48.3396 51.1608 54.3478 54.2694 54.3478 55.7322C54.3347 57.6261 45.231 61.2702 28.5257 61.2702Z" fill="#ec4125"/>
<path d="M37.1322 19.7743C37.1322 15.0201 33.2791 11.167 28.5248 11.167C23.7705 11.167 19.9175 15.0201 19.9175 19.7743C19.9175 24.5286 23.7705 28.3817 28.5248 28.3817C33.2791 28.3817 37.1322 24.5286 37.1322 19.7743ZM22.6342 19.7743C22.6342 16.5221 25.2726 13.8837 28.5248 13.8837C31.7771 13.8837 34.4154 16.5221 34.4154 19.7743C34.4154 23.0266 31.7771 25.665 28.5248 25.665C25.2726 25.665 22.6342 23.0266 22.6342 19.7743Z" fill="#ec4125"/>
</svg>
