<svg width="23" height="23" viewBox="0 0 23 23" fill="none" xmlns="http://www.w3.org/2000/svg">
<path d="M14.1014 16.9221C15.9566 13.8449 18.3016 9.51894 18.3016 7.29531C18.3016 3.54434 15.2514 0.494141 11.5004 0.494141C7.74941 0.494141 4.69922 3.54434 4.69922 7.29531C4.69922 9.51894 7.04414 13.8449 8.89941 16.9221C6.69824 17.0883 1.68945 17.6857 1.68945 19.6668C1.68945 21.6164 6.77461 22.5059 11.5049 22.5059C16.2307 22.5059 21.3203 21.6164 21.3203 19.6668C21.3158 17.6857 16.3025 17.0883 14.1014 16.9221ZM5.63809 7.29531C5.63809 4.06094 8.27051 1.42852 11.5004 1.42852C14.7348 1.42852 17.3672 4.06094 17.3672 7.29531C17.3672 10.1209 12.866 17.2096 11.5004 19.2939C10.1348 17.2096 5.63809 10.1209 5.63809 7.29531ZM11.5004 21.567C5.75488 21.567 2.62383 20.3092 2.62383 19.6623C2.62383 19.1637 4.69023 18.09 9.45195 17.816C10.3459 19.258 11.0242 20.2777 11.1141 20.399C11.2354 20.5607 11.5902 20.7539 11.8912 20.399C11.9855 20.2867 12.6594 19.258 13.5533 17.816C18.315 18.09 20.3814 19.1592 20.3814 19.6623C20.377 20.3137 17.2459 21.567 11.5004 21.567Z" fill="white"/>
<path d="M14.4607 7.29531C14.4607 5.66016 13.1355 4.33496 11.5004 4.33496C9.86523 4.33496 8.54004 5.66016 8.54004 7.29531C8.54004 8.93047 9.86523 10.2557 11.5004 10.2557C13.1355 10.2557 14.4607 8.93047 14.4607 7.29531ZM9.47441 7.29531C9.47441 6.17676 10.3818 5.26934 11.5004 5.26934C12.6189 5.26934 13.5264 6.17676 13.5264 7.29531C13.5264 8.41387 12.6189 9.32129 11.5004 9.32129C10.3818 9.32129 9.47441 8.41387 9.47441 7.29531Z" fill="white"/>
</svg>
