<svg width="23" height="23" viewBox="0 0 23 23" fill="none" xmlns="http://www.w3.org/2000/svg">
<g clip-path="url(#clip0)">
<path d="M20.1922 2.74805H2.81254C1.26112 2.74805 0 4.00917 0 5.56059V17.4389C0 18.9903 1.26112 20.2515 2.81254 20.2515H20.1875C21.7389 20.2515 23 18.9903 23 17.4389V5.56534C23.0048 4.01393 21.7436 2.74805 20.1922 2.74805ZM21.7198 17.4389C21.7198 18.2813 21.0346 18.9665 20.1922 18.9665H2.81254C1.9702 18.9665 1.28492 18.2813 1.28492 17.4389V5.56534C1.28492 4.72301 1.9702 4.03772 2.81254 4.03772H20.1875C21.0298 4.03772 21.7151 4.72301 21.7151 5.56534V17.4389H21.7198Z" fill="white"/>
<path d="M14.5054 11.3525L20.1304 6.308C20.3922 6.07005 20.416 5.66554 20.178 5.39904C19.9401 5.13729 19.5356 5.1135 19.2691 5.35145L11.512 12.3138L9.99864 10.9622C9.99389 10.9575 9.98913 10.9527 9.98913 10.948C9.95581 10.9147 9.9225 10.8861 9.88443 10.8576L3.72635 5.34669C3.45985 5.10874 3.05534 5.13253 2.81739 5.39904C2.57944 5.66554 2.60324 6.07005 2.86974 6.308L8.56144 11.3953L2.89353 16.7015C2.63655 16.9442 2.62227 17.3488 2.86498 17.6105C2.99347 17.7437 3.16479 17.8151 3.33612 17.8151C3.49316 17.8151 3.65021 17.758 3.77394 17.6438L9.52751 12.2614L11.0884 13.6558C11.2122 13.7653 11.3645 13.8176 11.5167 13.8176C11.669 13.8176 11.8261 13.7605 11.9451 13.6511L13.5488 12.2139L19.2691 17.6486C19.3928 17.7675 19.5546 17.8247 19.7117 17.8247C19.883 17.8247 20.0495 17.758 20.178 17.6248C20.4207 17.3678 20.4112 16.9585 20.1542 16.7158L14.5054 11.3525Z" fill="white"/>
</g>
<defs>
<clipPath id="clip0">
<rect width="23" height="23" fill="white"/>
</clipPath>
</defs>
</svg>
