<svg width="55" height="41" viewBox="0 0 55 41" fill="none" xmlns="http://www.w3.org/2000/svg">
<path d="M48.1132 0H7.40303C3.76899 0 0.814941 2.95405 0.814941 6.58809V34.4119C0.814941 38.046 3.76899 41 7.40303 41H48.1021C51.7361 41 54.6901 38.046 54.6901 34.4119V6.59924C54.7013 2.9652 51.7472 0 48.1132 0ZM51.6915 34.4119C51.6915 36.385 50.0863 37.9902 48.1132 37.9902H7.40303C5.42995 37.9902 3.82473 36.385 3.82473 34.4119V6.59924C3.82473 4.62615 5.42995 3.02094 7.40303 3.02094H48.1021C50.0751 3.02094 51.6804 4.62615 51.6804 6.59924V34.4119H51.6915Z" fill="#ec4125"/>
<path d="M34.7935 20.1544L47.9697 8.33823C48.5828 7.78087 48.6385 6.83334 48.0812 6.20909C47.5238 5.59598 46.5763 5.54025 45.952 6.09761L27.7818 22.4062L24.2369 19.2404C24.2258 19.2292 24.2146 19.2181 24.2146 19.2069C24.1366 19.1289 24.0586 19.062 23.9694 18.9951L9.54472 6.08647C8.92046 5.5291 7.97294 5.58484 7.41557 6.20909C6.8582 6.83334 6.91394 7.78087 7.53819 8.33823L20.8704 20.2548L7.59393 32.6841C6.99197 33.2526 6.95853 34.2001 7.52704 34.8132C7.82802 35.1253 8.22933 35.2926 8.63063 35.2926C8.99849 35.2926 9.36636 35.1588 9.65619 34.8913L23.1334 22.2836L26.7897 25.5498C27.0795 25.8062 27.4362 25.9288 27.7929 25.9288C28.1497 25.9288 28.5175 25.795 28.7962 25.5386L32.5529 22.1721L45.952 34.9024C46.2418 35.1811 46.6208 35.3149 46.9887 35.3149C47.39 35.3149 47.7802 35.1588 48.0812 34.8467C48.6497 34.2447 48.6274 33.286 48.0254 32.7175L34.7935 20.1544Z" fill="#ec4125"/>
</svg>
