<svg width="56" height="56" viewBox="0 0 56 56" fill="none" xmlns="http://www.w3.org/2000/svg">
<path d="M44.2166 34.6895C43.0702 33.4958 41.6873 32.8576 40.2218 32.8576C38.768 32.8576 37.3734 33.484 36.1796 34.6777L32.4448 38.4007C32.1375 38.2353 31.8302 38.0816 31.5347 37.928C31.1092 37.7152 30.7074 37.5143 30.3646 37.3015C26.8662 35.0796 23.6868 32.1839 20.6375 28.4372C19.1601 26.5698 18.1673 24.9979 17.4464 23.4023C18.4155 22.5158 19.3138 21.594 20.1884 20.7075C20.5193 20.3766 20.8503 20.0338 21.1812 19.7029C23.6632 17.2209 23.6632 14.0061 21.1812 11.5241L17.9546 8.29747C17.5882 7.93108 17.21 7.55286 16.8554 7.17465C16.1463 6.44187 15.4016 5.68545 14.6334 4.9763C13.487 3.84167 12.1159 3.23889 10.674 3.23889C9.23208 3.23889 7.83742 3.84167 6.65551 4.9763C6.64369 4.98812 6.64369 4.98812 6.63188 4.99994L2.61338 9.05389C1.10053 10.5667 0.23774 12.4105 0.0486339 14.5498C-0.235025 18.001 0.781418 21.2157 1.56148 23.3195C3.47617 28.4845 6.3364 33.2712 10.6031 38.4007C15.7799 44.5821 22.0085 49.4634 29.1236 52.9028C31.842 54.191 35.4705 55.7157 39.5244 55.9757C39.7726 55.9875 40.0327 55.9994 40.269 55.9994C42.9993 55.9994 45.2922 55.0184 47.0887 53.0682C47.1005 53.0446 47.1241 53.0328 47.1359 53.0091C47.7505 52.2645 48.4597 51.5908 49.2043 50.8699C49.7125 50.3853 50.2325 49.8771 50.7408 49.3452C51.9109 48.1278 52.5255 46.7096 52.5255 45.2558C52.5255 43.7902 51.899 42.3838 50.7053 41.2019L44.2166 34.6895ZM48.4479 47.135C48.436 47.135 48.436 47.1469 48.4479 47.135C47.9869 47.6314 47.5142 48.0806 47.0059 48.577C46.2377 49.3098 45.4576 50.078 44.7248 50.9408C43.5311 52.2173 42.1246 52.82 40.2809 52.82C40.1036 52.82 39.9145 52.82 39.7372 52.8082C36.2269 52.5836 32.9648 51.2126 30.5183 50.0425C23.8287 46.8041 17.9546 42.2065 13.0733 36.3797C9.04297 31.522 6.34822 27.0307 4.56353 22.2086C3.46435 19.2656 3.06251 16.9727 3.23979 14.8098C3.35798 13.427 3.88984 12.2805 4.87083 11.2995L8.90114 7.26921C9.48028 6.72553 10.0949 6.43005 10.6976 6.43005C11.4423 6.43005 12.045 6.87918 12.4232 7.25739C12.4351 7.26921 12.4469 7.28103 12.4587 7.29284C13.1797 7.96653 13.8652 8.66386 14.5861 9.40846C14.9525 9.78668 15.3307 10.1649 15.7089 10.5549L18.9356 13.7815C20.1884 15.0344 20.1884 16.1926 18.9356 17.4455C18.5928 17.7882 18.2619 18.131 17.9191 18.4619C16.9263 19.4783 15.9808 20.4239 14.9525 21.3458C14.9289 21.3694 14.9052 21.3812 14.8934 21.4049C13.877 22.4213 14.0661 23.4141 14.2788 24.0878C14.2907 24.1232 14.3025 24.1587 14.3143 24.1942C15.1534 26.227 16.3354 28.1417 18.1319 30.4228L18.1437 30.4346C21.4058 34.4531 24.8451 37.5852 28.639 39.9845C29.1236 40.2918 29.62 40.54 30.0928 40.7764C30.5183 40.9891 30.9201 41.19 31.2629 41.4028C31.3102 41.4264 31.3574 41.4619 31.4047 41.4855C31.8066 41.6864 32.1848 41.781 32.5748 41.781C33.5558 41.781 34.1704 41.1664 34.3713 40.9655L38.4134 36.9233C38.8153 36.5215 39.4535 36.0369 40.1981 36.0369C40.9309 36.0369 41.5337 36.4978 41.9001 36.8997C41.9119 36.9115 41.9119 36.9115 41.9237 36.9233L48.436 43.4357C49.6534 44.6412 49.6534 45.8822 48.4479 47.135Z" fill="#ec4125"/>
<path d="M30.2225 13.3194C33.3192 13.8395 36.1321 15.305 38.3777 17.5507C40.6234 19.7963 42.0771 22.6092 42.609 25.7058C42.739 26.4859 43.4127 27.0296 44.1809 27.0296C44.2755 27.0296 44.3582 27.0178 44.4527 27.0059C45.3274 26.8641 45.9065 26.0368 45.7647 25.1622C45.1264 21.4155 43.3536 17.9998 40.647 15.2932C37.9404 12.5866 34.5247 10.8138 30.778 10.1755C29.9034 10.0337 29.0879 10.6128 28.9343 11.4756C28.7806 12.3384 29.3479 13.1776 30.2225 13.3194Z" fill="#ec4125"/>
<path d="M55.8959 24.7026C54.844 18.533 51.9365 12.919 47.4688 8.45135C43.0012 3.98373 37.3871 1.07623 31.2176 0.0243255C30.3548 -0.129323 29.5393 0.461632 29.3856 1.32443C29.2438 2.19904 29.8229 3.01456 30.6975 3.16821C36.2052 4.10192 41.2283 6.71394 45.2232 10.697C49.2181 14.6918 51.8183 19.715 52.752 25.2227C52.882 26.0027 53.5557 26.5464 54.3239 26.5464C54.4185 26.5464 54.5012 26.5346 54.5958 26.5228C55.4586 26.3927 56.0495 25.5654 55.8959 24.7026Z" fill="#ec4125"/>
</svg>
